<svg width="120" height="24" viewBox="0 0 120 24" fill="none" xmlns="http://www.w3.org/2000/svg">
  <!-- Cubent Logo -->
  <g transform="translate(2, 12) scale(0.0296, 0.0296) translate(-315, -330)">
    <!-- Top face -->
    <path d="M 304.59375 3.09375 L 31.457031 149.265625 L 314.679688 301.847656 L 595.179688 147.667969 L 325.085938 3.574219 C 323.539062 2.667969 321.902344 1.96875 320.175781 1.480469 C 318.453125 0.992188 316.691406 0.722656 314.902344 0.683594 C 313.109375 0.640625 311.339844 0.824219 309.59375 1.230469 C 307.847656 1.640625 306.179688 2.261719 304.59375 3.09375 Z" fill="#60a5fa"/>
    <!-- Right face -->
    <path d="M 611.667969 512.703125 C 612.527344 512.246094 613.351562 511.730469 614.140625 511.160156 C 614.929688 510.589844 615.675781 509.972656 616.382812 509.300781 C 617.085938 508.628906 617.742188 507.914062 618.347656 507.152344 C 618.957031 506.390625 619.507812 505.59375 620.007812 504.757812 C 620.503906 503.921875 620.945312 503.058594 621.328125 502.164062 C 621.707031 501.265625 622.027344 500.351562 622.28125 499.410156 C 622.539062 498.472656 622.730469 497.519531 622.855469 496.554688 C 622.980469 495.589844 623.042969 494.621094 623.035156 493.648438 L 623.035156 181.769531 L 336.613281 339.308594 L 336.613281 659.515625 Z" fill="#93c5fd" opacity="0.7"/>
    <!-- Left face -->
    <path d="M 6.480469 493.007812 C 6.476562 493.988281 6.539062 494.960938 6.664062 495.929688 C 6.792969 496.902344 6.984375 497.855469 7.242188 498.800781 C 7.496094 499.746094 7.816406 500.667969 8.195312 501.570312 C 8.578125 502.46875 9.015625 503.339844 9.515625 504.183594 C 10.011719 505.023438 10.5625 505.828125 11.171875 506.597656 C 11.777344 507.363281 12.433594 508.085938 13.136719 508.765625 C 13.839844 509.445312 14.585938 510.074219 15.375 510.652344 C 16.164062 511.230469 16.988281 511.753906 17.847656 512.222656 L 293.222656 659.515625 L 293.222656 339.308594 L 6.480469 184.808594 Z" fill="#3b82f6" opacity="0.6"/>
  </g>
  <!-- Cubent Text as SVG paths -->
  <g transform="translate(30, 6)" fill="white">
    <!-- C -->
    <path d="M2.5 12.5C1.1 12.5 0 11.4 0 10V4C0 2.6 1.1 1.5 2.5 1.5C3.9 1.5 5 2.6 5 4V5H3.5V4C3.5 3.4 3.1 3 2.5 3C1.9 3 1.5 3.4 1.5 4V10C1.5 10.6 1.9 11 2.5 11C3.1 11 3.5 10.6 3.5 10V9H5V10C5 11.4 3.9 12.5 2.5 12.5Z"/>
    <!-- u -->
    <path d="M8.5 12.5C7.1 12.5 6 11.4 6 10V5.5H7.5V10C7.5 10.6 7.9 11 8.5 11C9.1 11 9.5 10.6 9.5 10V5.5H11V10C11 11.4 9.9 12.5 8.5 12.5Z"/>
    <!-- b -->
    <path d="M12 12.5V1.5H13.5V5.5C14.1 5.1 14.8 4.9 15.5 4.9C16.9 4.9 18 6 18 7.5V10C18 11.4 16.9 12.5 15.5 12.5C14.8 12.5 14.1 12.3 13.5 11.9V12.5H12ZM15.5 11C16.1 11 16.5 10.6 16.5 10V7.5C16.5 6.9 16.1 6.5 15.5 6.5C14.9 6.5 14.5 6.9 14.5 7.5V10C14.5 10.6 14.9 11 15.5 11Z"/>
    <!-- e -->
    <path d="M21.5 12.5C20.1 12.5 19 11.4 19 10V7.5C19 6.1 20.1 5 21.5 5C22.9 5 24 6.1 24 7.5V8.5H20.5V10C20.5 10.6 20.9 11 21.5 11C22.1 11 22.5 10.6 22.5 10H24C24 11.4 22.9 12.5 21.5 12.5ZM20.5 7.5C20.5 6.9 20.9 6.5 21.5 6.5C22.1 6.5 22.5 6.9 22.5 7.5V7H20.5V7.5Z"/>
    <!-- n -->
    <path d="M25 12.5V5.5H26.5V6.5C27.1 5.9 27.8 5.5 28.5 5.5C29.9 5.5 31 6.6 31 8V12.5H29.5V8C29.5 7.4 29.1 7 28.5 7C27.9 7 27.5 7.4 27.5 8V12.5H25Z"/>
    <!-- t -->
    <path d="M33.5 12.5C32.7 12.5 32 11.8 32 11V7H31V5.5H32V3.5H33.5V5.5H35V7H33.5V11C33.5 11.3 33.7 11.5 34 11.5H35V12.5H33.5Z"/>
  </g>
</svg>